<svg xmlns="http://www.w3.org/2000/svg" xmlns:xlink="http://www.w3.org/1999/xlink" width="1366" zoomAndPan="magnify" viewBox="0 0 1024.5 576" height="768" preserveAspectRatio="xMidYMid meet" version="1.0"><defs><clipPath id="f17194ac92"><path d="M 0 31 L 1012.414062 31 L 1012.414062 545 L 0 545 Z M 0 31 " clip-rule="nonzero"/></clipPath></defs><g clip-path="url(#f17194ac92)"><path fill="#ffffff" d="M 1012.414062 287.984375 C 1012.414062 292.183594 1012.210938 296.378906 1011.796875 300.574219 C 1011.386719 304.769531 1010.769531 308.957031 1009.949219 313.136719 C 1009.128906 317.3125 1008.101562 321.480469 1006.871094 325.632812 C 1005.640625 329.789062 1004.207031 333.925781 1002.574219 338.042969 C 1000.9375 342.160156 999.101562 346.257812 997.0625 350.332031 C 995.027344 354.402344 992.792969 358.449219 990.359375 362.46875 C 987.925781 366.488281 985.296875 370.472656 982.472656 374.425781 C 979.648438 378.378906 976.632812 382.296875 973.421875 386.175781 C 970.214844 390.054688 966.820312 393.894531 963.234375 397.691406 C 959.648438 401.484375 955.882812 405.234375 951.929688 408.9375 C 947.976562 412.644531 943.847656 416.296875 939.535156 419.898438 C 935.226562 423.5 930.742188 427.046875 926.085938 430.539062 C 921.429688 434.027344 916.601562 437.460938 911.609375 440.832031 C 906.613281 444.207031 901.457031 447.515625 896.140625 450.761719 C 890.820312 454.007812 885.347656 457.1875 879.71875 460.296875 C 874.089844 463.410156 868.308594 466.449219 862.382812 469.417969 C 856.453125 472.390625 850.382812 475.285156 844.171875 478.105469 C 837.960938 480.921875 831.613281 483.664062 825.132812 486.328125 C 818.652344 488.992188 812.046875 491.578125 805.3125 494.078125 C 798.578125 496.578125 791.726562 498.996094 784.757812 501.328125 C 777.785156 503.664062 770.707031 505.910156 763.515625 508.066406 C 756.324219 510.226562 749.03125 512.296875 741.640625 514.273438 C 734.246094 516.253906 726.757812 518.140625 719.179688 519.9375 C 711.601562 521.734375 703.941406 523.433594 696.195312 525.039062 C 688.449219 526.648438 680.632812 528.160156 672.738281 529.574219 C 664.84375 530.988281 656.886719 532.304688 648.863281 533.523438 C 640.839844 534.742188 632.765625 535.863281 624.632812 536.882812 C 616.5 537.902344 608.324219 538.824219 600.101562 539.640625 C 591.878906 540.460938 583.621094 541.179688 575.328125 541.796875 C 567.035156 542.410156 558.71875 542.925781 550.375 543.335938 C 542.03125 543.75 533.675781 544.058594 525.300781 544.261719 C 516.925781 544.46875 508.550781 544.574219 500.164062 544.574219 C 491.78125 544.574219 483.402344 544.46875 475.03125 544.261719 C 466.65625 544.058594 458.300781 543.75 449.957031 543.335938 C 441.613281 542.925781 433.296875 542.410156 425.003906 541.796875 C 416.710938 541.179688 408.453125 540.460938 400.230469 539.640625 C 392.007812 538.824219 383.832031 537.902344 375.699219 536.882812 C 367.566406 535.863281 359.488281 534.742188 351.46875 533.523438 C 343.445312 532.304688 335.488281 530.988281 327.59375 529.574219 C 319.699219 528.160156 311.882812 526.648438 304.136719 525.039062 C 296.390625 523.433594 288.730469 521.734375 281.152344 519.9375 C 273.574219 518.140625 266.085938 516.253906 258.691406 514.273438 C 251.300781 512.296875 244.007812 510.226562 236.816406 508.066406 C 229.625 505.910156 222.546875 503.664062 215.574219 501.328125 C 208.605469 498.996094 201.753906 496.578125 195.019531 494.078125 C 188.285156 491.578125 181.679688 488.992188 175.199219 486.328125 C 168.71875 483.664062 162.371094 480.921875 156.160156 478.105469 C 149.949219 475.285156 143.878906 472.390625 137.949219 469.417969 C 132.023438 466.449219 126.242188 463.410156 120.613281 460.296875 C 114.984375 457.1875 109.507812 454.007812 104.191406 450.761719 C 98.871094 447.515625 93.71875 444.207031 88.722656 440.832031 C 83.730469 437.460938 78.902344 434.027344 74.246094 430.539062 C 69.589844 427.046875 65.105469 423.5 60.792969 419.898438 C 56.484375 416.296875 52.355469 412.644531 48.402344 408.9375 C 44.449219 405.234375 40.683594 401.484375 37.097656 397.691406 C 33.511719 393.894531 30.117188 390.054688 26.910156 386.175781 C 23.699219 382.296875 20.683594 378.378906 17.859375 374.425781 C 15.035156 370.472656 12.40625 366.488281 9.972656 362.46875 C 7.539062 358.449219 5.304688 354.402344 3.265625 350.332031 C 1.230469 346.257812 -0.605469 342.160156 -2.242188 338.042969 C -3.875 333.925781 -5.308594 329.789062 -6.539062 325.632812 C -7.769531 321.480469 -8.796875 317.3125 -9.617188 313.136719 C -10.4375 308.957031 -11.054688 304.769531 -11.46875 300.574219 C -11.878906 296.378906 -12.085938 292.183594 -12.085938 287.984375 C -12.085938 283.785156 -11.878906 279.589844 -11.46875 275.394531 C -11.054688 271.199219 -10.4375 267.015625 -9.617188 262.835938 C -8.796875 258.65625 -7.769531 254.488281 -6.539062 250.335938 C -5.308594 246.183594 -3.875 242.046875 -2.242188 237.925781 C -0.605469 233.808594 1.230469 229.710938 3.265625 225.640625 C 5.304688 221.566406 7.539062 217.519531 9.972656 213.5 C 12.40625 209.484375 15.035156 205.496094 17.859375 201.542969 C 20.683594 197.589844 23.699219 193.671875 26.910156 189.792969 C 30.117188 185.914062 33.511719 182.074219 37.097656 178.28125 C 40.683594 174.484375 44.449219 170.734375 48.402344 167.03125 C 52.355469 163.328125 56.484375 159.675781 60.792969 156.074219 C 65.105469 152.46875 69.589844 148.925781 74.246094 145.433594 C 78.902344 141.941406 83.730469 138.507812 88.722656 135.136719 C 93.71875 131.761719 98.871094 128.453125 104.191406 125.207031 C 109.507812 121.960938 114.984375 118.78125 120.613281 115.671875 C 126.242188 112.558594 132.023438 109.519531 137.949219 106.550781 C 143.878906 103.582031 149.949219 100.6875 156.160156 97.867188 C 162.371094 95.046875 168.71875 92.304688 175.199219 89.640625 C 181.679688 86.976562 188.285156 84.394531 195.019531 81.890625 C 201.753906 79.390625 208.605469 76.972656 215.574219 74.640625 C 222.546875 72.308594 229.625 70.0625 236.816406 67.902344 C 244.007812 65.742188 251.300781 63.675781 258.691406 61.695312 C 266.085938 59.714844 273.574219 57.828125 281.152344 56.03125 C 288.730469 54.238281 296.390625 52.535156 304.136719 50.929688 C 311.882812 49.320312 319.699219 47.8125 327.59375 46.394531 C 335.488281 44.980469 343.445312 43.664062 351.46875 42.445312 C 359.488281 41.226562 367.566406 40.105469 375.699219 39.085938 C 383.832031 38.066406 392.007812 37.148438 400.230469 36.328125 C 408.453125 35.507812 416.710938 34.789062 425.003906 34.175781 C 433.296875 33.558594 441.613281 33.042969 449.957031 32.632812 C 458.300781 32.222656 466.65625 31.914062 475.03125 31.707031 C 483.402344 31.5 491.78125 31.398438 500.164062 31.398438 C 508.550781 31.398438 516.925781 31.5 525.300781 31.707031 C 533.675781 31.914062 542.03125 32.222656 550.375 32.632812 C 558.71875 33.042969 567.035156 33.558594 575.328125 34.175781 C 583.621094 34.789062 591.878906 35.507812 600.101562 36.328125 C 608.324219 37.148438 616.5 38.066406 624.632812 39.085938 C 632.765625 40.105469 640.839844 41.226562 648.863281 42.445312 C 656.886719 43.664062 664.84375 44.980469 672.738281 46.394531 C 680.632812 47.8125 688.449219 49.320312 696.195312 50.929688 C 703.941406 52.535156 711.601562 54.238281 719.179688 56.03125 C 726.757812 57.828125 734.246094 59.714844 741.640625 61.695312 C 749.03125 63.675781 756.324219 65.742188 763.515625 67.902344 C 770.707031 70.0625 777.785156 72.308594 784.757812 74.640625 C 791.726562 76.972656 798.578125 79.390625 805.3125 81.890625 C 812.046875 84.394531 818.652344 86.976562 825.132812 89.640625 C 831.613281 92.304688 837.960938 95.046875 844.171875 97.867188 C 850.382812 100.6875 856.453125 103.582031 862.382812 106.550781 C 868.308594 109.519531 874.089844 112.558594 879.71875 115.671875 C 885.347656 118.78125 890.820312 121.960938 896.140625 125.207031 C 901.457031 128.453125 906.613281 131.761719 911.609375 135.136719 C 916.601562 138.507812 921.429688 141.941406 926.085938 145.433594 C 930.742188 148.925781 935.226562 152.46875 939.539062 156.074219 C 943.847656 159.675781 947.976562 163.328125 951.929688 167.03125 C 955.882812 170.734375 959.648438 174.484375 963.234375 178.28125 C 966.820312 182.074219 970.214844 185.914062 973.421875 189.792969 C 976.632812 193.671875 979.648438 197.589844 982.472656 201.542969 C 985.296875 205.496094 987.925781 209.484375 990.359375 213.5 C 992.792969 217.519531 995.027344 221.566406 997.0625 225.640625 C 999.101562 229.710938 1000.9375 233.808594 1002.574219 237.925781 C 1004.207031 242.046875 1005.640625 246.183594 1006.871094 250.335938 C 1008.101562 254.488281 1009.128906 258.65625 1009.949219 262.835938 C 1010.769531 267.015625 1011.386719 271.199219 1011.796875 275.394531 C 1012.210938 279.589844 1012.414062 283.785156 1012.414062 287.984375 Z M 1012.414062 287.984375 " fill-opacity="1" fill-rule="nonzero"/></g></svg>